<?xml version="1.0" encoding="utf-8"?>
<!-- Generator: Adobe Illustrator 21.0.0, SVG Export Plug-In . SVG Version: 6.00 Build 0)  -->
<svg version="1.1" id="图层_1" xmlns:serif="http://www.serif.com/"
	 xmlns="http://www.w3.org/2000/svg" xmlns:xlink="http://www.w3.org/1999/xlink" x="0px" y="0px" viewBox="0 0 180 180"
	 style="enable-background:new 0 0 180 180;" xml:space="preserve">
<g>
	<path d="M59.5,107.2c-2.1,0-4.3-0.3-6.6-0.8c-15.4-3.5-18.4-12.6-19-16.3c-1.1-7.3,3.2-14.7,11.6-19.6c8.1-4.7,15.9-3.2,23.2,0.6
		c0.1-6.6-0.2-13.8-0.4-20.4c-1-23-1.8-42.8,11-48.6c4.3-2,8.8-2.1,13-0.3c9.5,4,14.4,16.5,14.9,17.9l-12.2,4.5l6.1-2.2l-6.1,2.3
		c-1-2.8-4.3-9-7.7-10.4c-0.7-0.3-1.4-0.4-2.6,0.1c-0.4,0.2-2.5,1.6-3.4,10.1c-0.8,7.2-0.4,16.4,0,26.1c0.4,10.3,0.8,20.4,0.1,29.1
		c0.2,0.1,0.3,0.2,0.5,0.3c15,10.9,24.9,16.9,38.1,3.7l9.2,9.2c-19.5,19.6-37.1,10.2-50.6,0.7c-1.5,4-3.6,7.3-6.6,9.8
		C68.5,105.8,64.3,107.2,59.5,107.2z M56.2,80.6c-1.4,0-2.7,0.3-4,1.1c-4,2.4-5.6,4.9-5.3,6.4c0.3,1.8,3.2,4.3,9,5.6
		c5.3,1.2,7.1-0.3,7.7-0.8c1.8-1.5,3-4.2,3.8-7.7C62.9,82.4,59.3,80.6,56.2,80.6z"/>
</g>
<g>
	<path d="M31.8,30.8c-7.6,0-16.4-2.7-25-11.6l9.3-9.1c6.8,7,14.1,9.2,22.2,6.6c6.3-2,10.6-6.1,10.7-6.2l9.1,9.3
		c-0.7,0.6-6.7,6.3-15.8,9.2C39.2,30.1,35.7,30.8,31.8,30.8z"/>
</g>
<g>
	<path d="M137.5,31.2c-7.3,0-15.5-2.6-23.8-10.3l8.8-9.6c16.4,15.2,31.2,0.4,32.9-1.4l9.5,8.8C164.7,19,153.2,31.2,137.5,31.2z"/>
</g>
<g>
	<path d="M77.4,179.1c-12-14.4-15.8-26.7-11.3-36.6c5.9-12.9,24.9-19.5,58.2-20.1c9.8-0.2,17.5-3.4,23.5-9.9
		c15.7-17.1,13.7-49.9,13.6-50.2l13-0.9c0.1,1.6,2.4,38.8-17,59.9c-8.4,9.1-19.4,13.9-32.8,14.1c-12.4,0.2-41.8,1.9-46.6,12.5
		c-2.2,4.9,1.1,13,9.4,22.9L77.4,179.1z"/>
</g>
</svg>
